# 3ds Max Wavefront OBJ Exporter v0.99 - (c)2007 guruware
# File Created: 30.05.2021 03:14:17

mtllib smallPrism2.mtl

#
# object default
#

v  0.8803 -0.9000 -1.8216
v  0.8803 0.9000 -1.8216
v  0.8803 -0.9000 -0.0216
v  0.8803 0.9000 -0.0216
v  -0.9197 0.9000 -1.8216
v  -0.9197 0.9000 -0.0216
v  -0.9197 -0.9000 -1.8216
v  -0.9197 -0.9000 -0.0216
v  0.8803 -0.9000 1.7784
v  0.8803 0.9000 1.7784
v  -0.9197 0.9000 1.7784
v  -0.9197 -0.9000 1.7784
# 12 vertices

vn 0.5774 -0.5774 -0.5774
vn 0.5774 0.5774 -0.5774
vn 0.7071 -0.7071 0.0000
vn 0.7071 0.7071 -0.0000
vn -0.5774 0.5774 -0.5774
vn -0.7071 0.7071 -0.0000
vn -0.5774 -0.5774 -0.5774
vn -0.7071 -0.7071 0.0000
vn 0.5774 -0.5774 0.5774
vn 0.5774 0.5774 0.5774
vn -0.5774 0.5774 0.5774
vn -0.5774 -0.5774 0.5774
# 12 vertex normals

vt 0.0000 0.0000 0.0000
# 1 texture coords

o default
g default
usemtl smallPrism_default
s 1
f 1/1/1 2/1/2 3/1/3 
f 2/1/2 4/1/4 3/1/3 
f 2/1/2 5/1/5 4/1/4 
f 5/1/5 6/1/6 4/1/4 
f 5/1/5 7/1/7 6/1/6 
f 7/1/7 8/1/8 6/1/6 
f 7/1/7 1/1/1 8/1/8 
f 1/1/1 3/1/3 8/1/8 
f 3/1/3 4/1/4 9/1/9 
f 4/1/4 10/1/10 9/1/9 
f 4/1/4 6/1/6 10/1/10 
f 6/1/6 11/1/11 10/1/10 
f 6/1/6 8/1/8 11/1/11 
f 8/1/8 12/1/12 11/1/11 
f 8/1/8 3/1/3 12/1/12 
f 3/1/3 9/1/9 12/1/12 
f 1/1/1 5/1/5 2/1/2 
f 5/1/5 1/1/1 7/1/7 
f 9/1/9 10/1/10 11/1/11 
f 11/1/11 12/1/12 9/1/9 
# 0 polygons - 20 triangles

